#!OML:ASF E:\Steps\Project 1\Capture day 1\Session 2\Subject.ASF
:FULLY-SPECIFIED
:DEGREES
22
root -1.09931 17.969 20.9474 -155.693 -1.26989 177.815
lowerback -27.7434 -2.16371 -6.82071
upperback -1.62889 -1.2837 -0.163929
thorax 13.7923 -1.25836 3.19043
lowerneck -5.61651 -4.78261 0.948432
upperneck 15.7828 -6.41956 2.53966
head 5.74424 -2.63485 0.242085
rclavicle 2.73329e-015 1.31198e-014
rhumerus -39.32 -17.4715 -77.9654
rradius 31.7103
rwrist -2.11897
rhand -7.41757 -59.1123
rfingers 7.12502
rthumb 18.4692 -88.2555
lclavicle 2.73329e-015 1.31198e-014
lhumerus -26.005 -4.15185 75.9291
lradius 33.4027
lwrist -2.36834
lhand -22.9017 -13.31
lfingers 7.12502
lthumb 3.53803 16.6403
rfemur -22.4533 5.07302 19.7484
rtibia 6.61671
rfoot -15.6514 -3.60698
rtoes -30.3661
lfemur -22.8057 -7.31785 -22.924
ltibia 7.16897
lfoot -6.15151 -4.70275
ltoes -35.4696
23
root -1.10209 17.9705 20.947 -155.766 -1.23139 177.832
lowerback -27.6805 -2.13878 -6.79058
upperback -1.62088 -1.25893 -0.192377
thorax 13.7639 -1.24258 3.15071
lowerneck -5.58003 -4.79324 0.977742
upperneck 15.7192 -6.4391 2.55168
head 5.71772 -2.64478 0.241285
rclavicle -3.37934e-015 -5.36719e-015
rhumerus -39.4202 -17.5833 -77.9568
rradius 31.7819
rwrist -2.04214
rhand -7.51833 -58.8994
rfingers 7.12502
rthumb 18.3723 -88.0518
lclavicle -3.37934e-015 -5.36719e-015
lhumerus -26.2278 -3.90406 76.3236
lradius 32.7608
lwrist -2.52457
lhand -22.861 -13.2961
lfingers 7.12502
lthumb 3.57733 16.6536
rfemur -22.3491 5.25305 19.7231
rtibia 6.54029
rfoot -15.6655 -3.74195
rtoes -30.6931
lfemur -22.6886 -7.30156 -22.9353
ltibia 7.09476
lfoot -6.16466 -4.6725
ltoes -36.128
24
root -1.10331 17.9689 20.9492 -155.728 -1.24746 177.871
lowerback -27.7157 -2.1457 -6.74726
upperback -1.63901 -1.28325 -0.192793
thorax 13.763 -1.25186 3.11515
lowerneck -5.55729 -4.81822 0.99532
upperneck 15.7349 -6.47263 2.55102
head 5.71846 -2.65896 0.236525
rclavicle 1.68967e-015 1.25234e-014
rhumerus -39.4664 -17.5727 -77.9856
rradius 31.8878
rwrist -2.00876
rhand -7.42824 -58.9193
rfingers 7.12502
rthumb 18.4589 -88.0635
lclavicle 1.68967e-015 1.25234e-014
lhumerus -26.4581 -3.58376 76.6691
lradius 32.1192
lwrist -2.70757
lhand -22.8185 -13.2868
lfingers 7.12502
lthumb 3.61838 16.6622
rfemur -22.3939 5.38789 19.7413
rtibia 6.5254
rfoot -15.6701 -3.90073
rtoes -31.1725
lfemur -22.7434 -7.27807 -22.8872
ltibia 7.10245
lfoot -6.20537 -4.71266
ltoes -36.4334
25
root -1.10544 17.967 20.949 -155.731 -1.22039 177.935
lowerback -27.7534 -2.12574 -6.67583
upperback -1.64026 -1.27794 -0.189662
thorax 13.7799 -1.24588 3.07907
lowerneck -5.5764 -4.88008 0.977979
upperneck 15.8999 -6.55568 2.604
head 5.77671 -2.68659 0.248532
rclavicle 9.14409e-015 -5.96354e-015
rhumerus -39.4369 -17.534 -78.0005
rradius 31.8614
rwrist -2.03192
rhand -7.21482 -59.1668
rfingers 7.12502
rthumb 18.6642 -88.2914
lclavicle 9.14409e-015 -5.96354e-015
lhumerus -26.6419 -3.29357 77.0355
lradius 31.472
lwrist -2.87559
lhand -22.7743 -13.273
lfingers 7.12502
lthumb 3.66105 16.6753
rfemur -22.4153 5.29925 19.8327
rtibia 6.5834
rfoot -15.6378 -3.76744
rtoes -30.9333
lfemur -22.7112 -7.25808 -22.8304
ltibia 7.05112
lfoot -6.27361 -4.68416
ltoes -36.5369
26
root -1.10757 17.9668 20.9502 -155.722 -1.19774 177.997
lowerback -27.7625 -2.11277 -6.60798
upperback -1.65538 -1.28572 -0.179069
thorax 13.7664 -1.24567 3.0492
lowerneck -5.52613 -4.8811 0.883865
upperneck 15.9234 -6.56009 2.73646
head 5.78324 -2.68196 0.305866
rclavicle -1.23743e-014 -2.66371e-014
rhumerus -39.3851 -17.4728 -78.0225
rradius 31.7718
rwrist -2.05968
rhand -6.93613 -59.8614
rfingers 7.12502
rthumb 18.9322 -88.9601
lclavicle -1.23743e-014 -2.66371e-014
lhumerus -26.8252 -3.0211 77.4199
lradius 30.8278
lwrist -3.01434
lhand -22.7249 -13.2518
lfingers 7.12502
lthumb 3.7088 16.6956
rfemur -22.4734 5.29179 19.9093
rtibia 6.67337
rfoot -15.6168 -3.75344
rtoes -30.849
lfemur -22.7186 -7.20723 -22.7791
ltibia 7.04187
lfoot -6.23565 -4.69888
ltoes -35.6959
27
root -1.11013 17.9668 20.9522 -155.671 -1.16286 178.014
lowerback -27.8227 -2.11624 -6.59174
upperback -1.67816 -1.29855 -0.167473
thorax 13.7728 -1.25275 3.04726
lowerneck -5.4849 -4.86624 0.824643
upperneck 15.8887 -6.53475 2.75082
head 5.7674 -2.67418 0.322899
rclavicle -5.01931e-015 4.77083e-015
rhumerus -39.3926 -17.4019 -78.0356
rradius 31.7564
rwrist -2.09113
rhand -6.86178 -60.2956
rfingers 7.12502
rthumb 19.0038 -89.3873
lclavicle -5.01931e-015 4.77083e-015
lhumerus -26.9898 -2.71856 77.879
lradius 30.1589
lwrist -3.19629
lhand -22.6731 -13.2318
lfingers 7.12502
lthumb 3.75875 16.7148
rfemur -22.5581 5.32095 19.9047
rtibia 6.70034
rfoot -15.6314 -3.73891
rtoes -30.9194
lfemur -22.7982 -7.10866 -22.7886
ltibia 7.07536
lfoot -6.11539 -4.74942
ltoes -35.2238
28
root -1.11193 17.9668 20.9531 -155.647 -1.13103 178.011
lowerback -27.9144 -2.14214 -6.64151
upperback -1.3208 -1.31544 -0.0444422
thorax 13.4642 -1.24784 3.02344
lowerneck -5.4935 -4.87782 0.845546
upperneck 15.9847 -6.53099 2.61634
head 5.79344 -2.67682 0.276884
rclavicle -6.16232e-015 2.78299e-015
rhumerus -39.4136 -17.3192 -78.0202
rradius 31.7585
rwrist -2.20285
rhand -7.01775 -59.968
rfingers 7.12502
rthumb 18.8537 -89.0743
lclavicle -6.16232e-015 2.78299e-015
lhumerus -27.1201 -2.4032 78.4007
lradius 29.4818
lwrist -3.35916
lhand -22.6192 -13.2032
lfingers 7.12502
lthumb 3.81087 16.7425
rfemur -22.5832 5.30207 19.8892
rtibia 6.68121
rfoot -15.6584 -3.66255
rtoes -30.9877
lfemur -22.8425 -6.98055 -22.8225
ltibia 7.09413
lfoot -6.08575 -4.83006
ltoes -35.5534
29
root -1.11322 17.9654 20.9527 -155.583 -1.10707 178.035
lowerback -28.031 -2.15806 -6.67115
upperback -1.32712 -1.32784 -0.00614269
thorax 13.5137 -1.25916 3.07307
lowerneck -5.4552 -4.89149 0.880105
upperneck 16.1065 -6.52906 2.5085
head 5.82001 -2.67497 0.23796
rclavicle 1.09332e-015 -5.56597e-015
rhumerus -39.4254 -17.1876 -78.033
rradius 31.7953
rwrist -2.34737
rhand -7.1053 -59.5599
rfingers 7.12502
rthumb 18.7695 -88.6744
lclavicle 1.09332e-015 -5.56597e-015
lhumerus -27.2719 -2.16032 78.873
lradius 28.8288
lwrist -3.45722
lhand -22.5557 -13.166
lfingers 7.12502
lthumb 3.87211 16.7786
rfemur -22.6806 5.24881 19.9233
rtibia 6.72894
rfoot -15.6749 -3.61678
rtoes -31.2762
lfemur -22.9283 -6.87694 -22.8115
ltibia 7.11777
lfoot -6.08695 -4.9279
ltoes -35.782
30
root -1.11585 17.9668 20.9535 -155.594 -1.11706 178.005
lowerback -28.0377 -2.18926 -6.75715
upperback -1.32437 -1.34453 0.0260109
thorax 13.5235 -1.27281 3.14801
lowerneck -5.43821 -4.86648 0.862753
upperneck 16.2232 -6.47698 2.44992
head 5.85166 -2.64846 0.22556
rclavicle -1.09332e-015 1.78906e-015
rhumerus -39.4004 -17.0315 -78.0406
rradius 31.7989
rwrist -2.45219
rhand -7.15918 -59.3077
rfingers 7.12502
rthumb 18.7177 -88.4271
lclavicle -1.09332e-015 1.78906e-015
lhumerus -27.443 -1.88299 79.3044
lradius 28.1785
lwrist -3.58266
lhand -22.4897 -13.1338
lfingers 7.12502
lthumb 3.93586 16.8096
rfemur -22.7145 5.19788 19.8971
rtibia 6.83442
rfoot -15.7288 -3.60074
rtoes -31.3195
lfemur -22.9026 -6.84499 -22.8787
ltibia 7.10151
lfoot -6.05211 -5.00439
ltoes -36.0635
31
root -1.11903 17.9642 20.9553 -155.5 -1.14427 177.977
lowerback -28.1155 -2.2249 -6.83527
upperback -1.36065 -1.37543 0.070529
thorax 13.523 -1.2949 3.22448
lowerneck -5.2786 -4.81376 0.755776
upperneck 16.1473 -6.39009 2.48603
head 5.80412 -2.61274 0.264727
rclavicle -4.52235e-015 -2.38542e-014
rhumerus -39.404 -16.9116 -78.0083
rradius 31.7739
rwrist -2.5655
rhand -7.38028 -59.093
rfingers 7.12502
rthumb 18.5051 -88.2328
lclavicle -4.52235e-015 -2.38542e-014
lhumerus -27.6051 -1.54785 79.7257
lradius 27.5249
lwrist -3.73369
lhand -22.4264 -13.1034
lfingers 7.12502
lthumb 3.99699 16.8388
rfemur -22.8554 5.16255 19.8547
rtibia 6.92347
rfoot -15.8268 -3.55332
rtoes -31.1934
lfemur -23.0075 -6.83946 -22.932
ltibia 7.10859
lfoot -6.0529 -5.08196
ltoes -36.1793
32
root -1.1202 17.9662 20.9573 -155.62 -1.22457 177.915
lowerback -27.9535 -2.27277 -6.91652
upperback -1.34043 -1.41534 0.0683882
thorax 13.4764 -1.31348 3.25568
lowerneck -5.18609 -4.85569 0.727935
upperneck 16.2278 -6.43884 2.53237
head 5.81645 -2.62849 0.282405
rclavicle -5.61567e-015 5.36719e-015
rhumerus -39.3717 -16.8536 -78.0304
rradius 31.727
rwrist -2.69274
rhand -7.50981 -58.7474
rfingers 7.12502
rthumb 18.3804 -87.899
lclavicle -5.61567e-015 5.36719e-015
lhumerus -27.7184 -1.25726 80.1131
lradius 26.8656
lwrist -3.86459
lhand -22.3583 -13.0649
lfingers 7.12502
lthumb 4.06276 16.8761
rfemur -22.6621 5.2329 19.7665
rtibia 6.80019
rfoot -15.835 -3.68277
rtoes -30.906
lfemur -22.8946 -6.88944 -23.0069
ltibia 7.15034
lfoot -6.13786 -5.17133
ltoes -36.4545
33
root -1.12208 17.965 20.9594 -155.613 -1.204 177.935
lowerback -27.9692 -2.25445 -6.87715
upperback -1.31758 -1.39538 0.0390346
thorax 13.5064 -1.30168 3.20971
lowerneck -5.22134 -4.91068 0.770419
upperneck 16.298 -6.5236 2.57949
head 5.84579 -2.65922 0.283216
rclavicle -2.6339e-015 7.15625e-015
rhumerus -39.2886 -16.9148 -78.0664
rradius 31.6693
rwrist -2.78052
rhand -7.38453 -58.6131
rfingers 7.12502
rthumb 18.501 -87.7533
lclavicle -2.6339e-015 7.15625e-015
lhumerus -27.8193 -0.845359 80.3753
lradius 26.2
lwrist -4.05945
lhand -22.2899 -13.0335
lfingers 7.12502
lthumb 4.1288 16.9062
rfemur -22.7282 5.40768 19.7188
rtibia 6.85767
rfoot -15.8084 -3.85678
rtoes -30.8407
lfemur -22.9251 -7.01258 -22.9479
ltibia 7.18328
lfoot -6.2316 -5.01415
ltoes -36.7903
34
root -1.12438 17.9667 20.9567 -155.74 -1.10622 178.017
lowerback -27.9243 -2.19411 -6.78252
upperback -1.24947 -1.33299 0.023873
thorax 13.5565 -1.26538 3.1674
lowerneck -5.27306 -4.94947 0.803004
upperneck 16.2838 -6.58783 2.59818
head 5.85059 -2.68836 0.278188
rclavicle 1.67476e-014 4.09496e-014
rhumerus -39.3143 -17.04 -78.0637
rradius 31.7419
rwrist -2.76635
rhand -7.26588 -58.754
rfingers 7.12502
rthumb 18.6151 -87.8833
lclavicle 1.67476e-014 4.09496e-014
lhumerus -27.948 -0.273864 80.5406
lradius 25.5347
lwrist -4.34066
lhand -22.2245 -13.0166
lfingers 7.12502
lthumb 4.19195 16.9219
rfemur -22.6095 5.23493 19.8578
rtibia 6.90125
rfoot -15.7428 -3.63277
rtoes -30.9866
lfemur -22.7484 -6.96912 -22.8935
ltibia 7.13768
lfoot -6.24101 -4.91014
ltoes -36.4571
35
root -1.12562 17.9648 20.9579 -155.698 -1.08329 178.011
lowerback -27.9617 -2.1919 -6.80016
upperback -1.25842 -1.32444 0.0201431
thorax 13.5626 -1.26368 3.175
lowerneck -5.28382 -5.01279 0.833329
upperneck 16.3209 -6.67394 2.57905
head 5.86331 -2.72779 0.26101
rclavicle 9.29318e-015 -6.16232e-015
rhumerus -39.3872 -17.067 -78.0672
rradius 31.8591
rwrist -2.72364
rhand -7.2246 -58.7506
rfingers 7.12502
rthumb 18.6548 -87.8761
lclavicle 9.29318e-015 -6.16232e-015
lhumerus -28.0946 0.285389 80.7758
lradius 24.8567
lwrist -4.66255
lhand -22.1584 -13.0018
lfingers 7.12502
lthumb 4.25579 16.9354
rfemur -22.5532 4.83499 19.9232
rtibia 6.67495
rfoot -15.5434 -3.29155
rtoes -30.9813
lfemur -22.8274 -6.92695 -22.9202
ltibia 7.19235
lfoot -6.2321 -4.94083
ltoes -36.3299
36
root -1.12675 17.9612 20.9584 -155.62 -1.02089 177.991
lowerback -28.0488 -2.17001 -6.86456
upperback -1.28544 -1.27675 0.0153622
thorax 13.5668 -1.24864 3.2201
lowerneck -5.24422 -5.03699 0.808068
upperneck 16.3962 -6.70087 2.61129
head 5.88245 -2.73454 0.273935
rclavicle -1.30701e-014 1.76918e-014
rhumerus -39.4032 -17.1159 -78.0244
rradius 31.8746
rwrist -2.77793
rhand -7.20638 -58.7959
rfingers 7.12502
rthumb 18.6723 -87.9198
lclavicle -1.30701e-014 1.76918e-014
lhumerus -28.2027 0.650501 81.1159
lradius 24.1798
lwrist -4.9143
lhand -22.0866 -12.974
lfingers 7.12502
lthumb 4.32511 16.9618
rfemur -22.7578 5.20363 19.8244
rtibia 6.92106
rfoot -15.657 -3.63985
rtoes -31.1502
lfemur -22.9163 -6.79942 -22.9792
ltibia 7.20439
lfoot -6.25637 -5.03298
ltoes -36.4389
